<svg xmlns="http://www.w3.org/2000/svg" xmlns:xlink="http://www.w3.org/1999/xlink" viewBox="0 0 600 282.53"><defs><style>.a{fill:none;}.b{clip-path:url(#a);}.c{fill:#db4437;}.d{fill:url(#b);}.e,.s,.u{fill:#3e2723;}.e,.h{fill-opacity:0.15;}.f{fill:#0f9d58;}.g{fill:url(#e);}.h{fill:#263238;}.i{clip-path:url(#h);}.j{fill:#ffcd40;}.k{fill:url(#i);}.l{clip-path:url(#m);}.m{fill:url(#p);}.n{clip-path:url(#r);}.o{fill:url(#u);}.p{fill:url(#w);}.q{fill:#f1f1f1;}.r{fill:#4285f4;}.s,.v{fill-opacity:0.2;}.t,.v,.x{fill:#fff;}.t{fill-opacity:0.1;}.u{isolation:isolate;opacity:0.1;}.w{fill:#008eff;}.y{fill:#0756a5;}</style><clipPath id="a"><circle class="a" cx="443.17" cy="141.26" r="141.26"/></clipPath><linearGradient id="b" x1="1728.62" y1="626.97" x2="2065.72" y2="823.89" gradientTransform="matrix(0.25, 0, 0, -0.25, -96, 264.33)" gradientUnits="userSpaceOnUse"><stop offset="0" stop-color="#a52714" stop-opacity="0.6"/><stop offset="0.66" stop-color="#a52714" stop-opacity="0"/></linearGradient><linearGradient id="e" x1="2252.17" y1="52.47" x2="1877.6" y2="271.85" gradientTransform="matrix(0.25, 0, 0, -0.25, -96, 264.33)" gradientUnits="userSpaceOnUse"><stop offset="0" stop-color="#055524" stop-opacity="0.4"/><stop offset="0.33" stop-color="#055524" stop-opacity="0"/></linearGradient><clipPath id="h"><polygon class="a" points="301.9 282.52 436.38 282.52 498.79 220.11 498.79 173.37 387.56 173.37 301.9 26.45 301.9 282.52"/></clipPath><linearGradient id="i" x1="2322.68" y1="788.89" x2="2417" y2="375.85" gradientTransform="matrix(0.25, 0, 0, -0.25, -96, 264.33)" gradientUnits="userSpaceOnUse"><stop offset="0" stop-color="#ea6100" stop-opacity="0.3"/><stop offset="0.66" stop-color="#ea6100" stop-opacity="0"/></linearGradient><clipPath id="m"><polygon class="a" points="443.17 77.05 498.79 173.37 436.38 282.52 584.43 282.52 584.43 77.05 443.17 77.05"/></clipPath><radialGradient id="p" cx="2132.11" cy="749.44" r="539.87" gradientTransform="matrix(0.25, 0, 0, -0.25, -96, 264.33)" gradientUnits="userSpaceOnUse"><stop offset="0" stop-color="#3e2723" stop-opacity="0.2"/><stop offset="1" stop-color="#3e2723" stop-opacity="0"/></radialGradient><clipPath id="r"><polygon class="a" points="324.33 0 324.33 64.76 387.56 173.37 443.17 77.05 584.43 77.05 584.43 0 324.33 0"/></clipPath><radialGradient id="u" cx="1680.7" cy="797.13" r="501.12" xlink:href="#p"/><radialGradient id="w" cx="2155.66" cy="491.38" r="564.22" gradientTransform="matrix(0.25, 0, 0, -0.25, -96, 264.33)" gradientUnits="userSpaceOnUse"><stop offset="0" stop-color="#263238" stop-opacity="0.2"/><stop offset="1" stop-color="#263238" stop-opacity="0"/></radialGradient></defs><g class="b"><path class="c" d="M324.33,0V173.37h63.23l55.61-96.32H584.43V0Z"/><path class="d" d="M324.33,0V173.37h63.23l55.61-96.32H584.43V0Z"/></g><g class="b"><path class="e" d="M389.08,172.81,325.15,63.15l-.93,1.61,63.47,108.83Z"/></g><g class="b"><path class="f" d="M301.9,282.53H436.38l62.41-62.42V173.37H387.56L301.9,26.45Z"/><path class="g" d="M301.9,282.53H436.38l62.41-62.42V173.37H387.56L301.9,26.45Z"/></g><g class="b"><path class="h" d="M497.49,175.5l-1.33-.77-61.63,107.8h1.85l61.16-107Z"/></g><g class="b"><g class="i"><path class="j" d="M443.17,77.05l55.62,96.32L436.38,282.53h148V77.05Z"/><path class="k" d="M443.17,77.05l55.62,96.32L436.38,282.53h148V77.05Z"/></g></g><g class="b"><path class="j" d="M443.17,77.05l55.62,96.32L436.38,282.53h148V77.05Z"/><path class="k" d="M443.17,77.05l55.62,96.32L436.38,282.53h148V77.05Z"/></g><g class="b"><g class="l"><path class="c" d="M324.33,0V173.37h63.23l55.61-96.32H584.43V0Z"/><path class="d" d="M324.33,0V173.37h63.23l55.61-96.32H584.43V0Z"/></g></g><g class="b"><path class="m" d="M443.17,77.05v33.63L569,77.05Z"/></g><g class="b"><g class="n"><path class="f" d="M301.9,282.53H436.38l62.41-62.42V173.37H387.56L301.9,26.45Z"/><path class="g" d="M301.9,282.53H436.38l62.41-62.42V173.37H387.56L301.9,26.45Z"/></g></g><g class="b"><path class="o" d="M324.33,64.93l91.9,91.89-28.67,16.55Z"/></g><g class="b"><path class="p" d="M436.47,282.35l33.65-125.53,28.67,16.55Z"/></g><g class="b"><circle class="q" cx="443.17" cy="141.26" r="64.21"/><circle class="r" cx="443.17" cy="141.26" r="51.37"/></g><g class="b"><path class="s" d="M443.17,75.45A64.21,64.21,0,0,0,379,139.66v1.6a64.21,64.21,0,0,1,64.21-64.21H584.43v-1.6Z"/><path class="t" d="M498.71,173.37a64.12,64.12,0,0,1-111.1,0h-.07L301.9,26.45v1.61L387.56,175h.06a64.11,64.11,0,0,0,111.1,0h.08v-1.6Z"/><path class="u" d="M444.77,77.05c-.27,0-.53,0-.8,0a64.16,64.16,0,0,1,0,128.32c.27,0,.53.05.8.05a64.21,64.21,0,1,0,0-128.42Z"/><path class="v" d="M499.35,175.5A64,64,0,0,0,505,124.05a63.49,63.49,0,0,1-6.21,49.27l0,.06L436.38,282.54h1.86l61.14-107Z"/></g><g class="b"><path class="v" d="M443.17,1.61A141.25,141.25,0,0,1,584.41,142.07c0-.28,0-.53,0-.81a141.27,141.27,0,0,0-282.53,0c0,.28,0,.53,0,.81A141.25,141.25,0,0,1,443.17,1.61Z"/><path class="e" d="M443.17,280.92A141.25,141.25,0,0,0,584.41,140.46c0,.27,0,.53,0,.8a141.27,141.27,0,1,1-282.53,0c0-.27,0-.53,0-.8A141.25,141.25,0,0,0,443.17,280.92Z"/></g><path class="a" d="M289.06-12.84H597.27V295.37H289.06Z"/><circle class="w" cx="155.88" cy="141.26" r="141.1"/><path class="x" d="M202.51,135.63a18.09,18.09,0,1,1,18-18.09,18.05,18.05,0,0,1-18,18.09M179.05,178a18.09,18.09,0,1,1,18-18.09,18,18,0,0,1-18,18.09m-23.4,41.46a18.1,18.1,0,1,1,18-18.1,18.06,18.06,0,0,1-18,18.1M131.35,178a18.09,18.09,0,1,1,18-18.09,18,18,0,0,1-18,18.09m24.3-78.55a18.09,18.09,0,1,1-18,18.09,18.05,18.05,0,0,1,18-18.09m75.28,18.09a28.56,28.56,0,0,0-28.42-28.63A28.18,28.18,0,0,0,180,100.16l-.89,1.17-.9-1.17a28.13,28.13,0,0,0-22.53-11.25,28.56,28.56,0,0,0-28.42,28.63l-.06,1.13a18,18,0,1,1-19-19.18V88.93A28.63,28.63,0,0,0,105,145.81l1.51.23-.67,1.38a28.62,28.62,0,0,0,22.85,41l1.54.14-.62,1.44a28.42,28.42,0,1,0,52.09-.11l-.61-1.38,1.5-.2a28.58,28.58,0,0,0,22.12-40.68l-.68-1.45,1.57-.17a28.49,28.49,0,0,0,25.36-28.46M166.42,71.37A26.56,26.56,0,0,1,182,63L180.9,52.53a37,37,0,0,0-30.6,27.06h11a26.55,26.55,0,0,1,5.1-8.22"/><path class="y" d="M306.76,180.59a4.17,4.17,0,0,1-4.19-4.19V164.74H264.75a4.2,4.2,0,0,1-4.19-4.19V122a4.19,4.19,0,0,1,4.19-4.19h37.82V106.12a4.2,4.2,0,0,1,4.19-4.19,4.15,4.15,0,0,1,2.71,1l41.47,35.14a4.19,4.19,0,0,1,0,6.39L309.47,179.6A4.19,4.19,0,0,1,306.76,180.59Z"/><path class="x" d="M306.76,106.12l41.47,35.14L306.76,176.4V160.55h-42V122h42V106.12m0-8.38a8.39,8.39,0,0,0-8.38,8.38v7.48H264.75a8.38,8.38,0,0,0-8.38,8.38v38.57a8.38,8.38,0,0,0,8.38,8.38h33.63v7.47a8.39,8.39,0,0,0,13.8,6.4l41.47-35.14a8.39,8.39,0,0,0,0-12.79L312.18,99.73a8.36,8.36,0,0,0-5.42-2Z"/></svg>