<?xml version="1.0" encoding="UTF-8"?><svg xmlns="http://www.w3.org/2000/svg" viewBox="0 0 376.05 133.42"><defs><style>.d{fill:#363737;}.e{fill:#5471b6;} @media(prefers-color-scheme:dark){.d{fill:#F2EBDF;}.e{fill:#F59C30;}}</style></defs><g id="a"/><g id="b"><g id="c"><g><g><g><path class="e" d="M340.99,93.76c-2.05,1.7-4.35,3.07-6.86,4.07-2.94,1.17-6.01,1.79-9.14,1.82-3.24,.04-6.4-.55-9.38-1.75-.41-.17-.62-.63-.46-1.04,.16-.41,.62-.61,1.03-.44,2.78,1.12,5.73,1.67,8.76,1.64,2.93-.03,5.81-.61,8.57-1.71,2.76-1.1,5.25-2.67,7.4-4.67,2.23-2.07,4-4.5,5.25-7.24,.18-.4,.66-.57,1.06-.38,.4,.19,.58,.67,.39,1.07-1.35,2.93-3.23,5.53-5.61,7.74-.34,.31-.68,.61-1.03,.91Z"/><path class="e" d="M346.9,83.97c.12,0,.23,.02,.34,.08,.4,.19,.58,.67,.39,1.07-1.35,2.93-3.23,5.53-5.61,7.74-.34,.31-.68,.61-1.03,.91-2.05,1.7-4.35,3.07-6.86,4.07-2.94,1.17-6.01,1.79-9.14,1.82-.09,0-.19,0-.28,0-3.14,0-6.2-.59-9.1-1.76-.41-.17-.62-.63-.46-1.04,.12-.31,.42-.5,.73-.5,.1,0,.2,.02,.3,.06,2.7,1.09,5.56,1.64,8.5,1.64,.09,0,.17,0,.26,0,2.93-.03,5.81-.61,8.57-1.71,2.76-1.1,5.25-2.67,7.4-4.67,2.23-2.07,3.99-4.5,5.25-7.24,.13-.29,.42-.46,.72-.46m0-2h0c-1.08,0-2.08,.64-2.53,1.62-1.15,2.5-2.76,4.72-4.8,6.61-1.97,1.83-4.25,3.27-6.78,4.28-2.53,1.01-5.17,1.54-7.85,1.57h-.24c-2.68,0-5.29-.5-7.75-1.49-.33-.13-.69-.2-1.05-.2-1.16,0-2.18,.7-2.6,1.78-.55,1.43,.15,3.05,1.57,3.62,3.13,1.26,6.45,1.9,9.85,1.9h.3c3.37-.04,6.69-.7,9.86-1.96,2.7-1.08,5.19-2.56,7.39-4.39,.37-.31,.75-.64,1.11-.98,2.57-2.39,4.61-5.2,6.07-8.37,.64-1.39,.03-3.05-1.35-3.71-.38-.18-.78-.27-1.2-.27h0Z"/></g><g><path class="e" d="M324.72,100.38c-3.24,0-6.39-.61-9.37-1.81-.78-.31-1.16-1.2-.86-1.97,.15-.38,.43-.68,.8-.84,.37-.16,.79-.17,1.17-.01,2.69,1.08,5.55,1.62,8.48,1.59,2.84-.03,5.64-.59,8.31-1.66,2.67-1.07,5.09-2.59,7.18-4.53,2.16-2,3.87-4.36,5.09-7.01,.17-.37,.47-.65,.85-.79,.38-.14,.8-.12,1.17,.06,.76,.36,1.09,1.26,.74,2.02-1.39,3.01-3.33,5.69-5.78,7.96-.35,.32-.7,.63-1.06,.93h0c-2.1,1.75-4.48,3.16-7.05,4.19-3.02,1.21-6.18,1.84-9.4,1.87-.1,0-.19,0-.29,0Zm-8.79-3.29l-.09,.04s0,.09,.05,.11c2.89,1.16,5.96,1.74,9.1,1.7,3.04-.03,6.03-.63,8.88-1.77,2.43-.97,4.67-2.3,6.66-3.96h0c.34-.28,.67-.58,1-.88,2.31-2.14,4.14-4.67,5.45-7.51,.02-.04,0-.09-.05-.11l-.75-.27,.66,.3c-1.3,2.82-3.12,5.34-5.42,7.47-2.22,2.06-4.78,3.68-7.62,4.81-2.84,1.13-5.81,1.73-8.83,1.76-3.12,.04-6.17-.53-9.04-1.69Z"/><path class="e" d="M346.9,83.25c.22,0,.44,.05,.65,.15,.76,.36,1.09,1.26,.74,2.02-1.39,3.01-3.33,5.69-5.78,7.96-.35,.32-.7,.63-1.06,.93-2.1,1.75-4.48,3.16-7.05,4.19-3.02,1.21-6.18,1.84-9.4,1.87-.1,0-.19,0-.29,0-3.24,0-6.39-.61-9.37-1.81-.78-.31-1.16-1.2-.86-1.97,.15-.38,.43-.68,.8-.84,.19-.08,.4-.13,.6-.13,.19,0,.38,.04,.57,.11,2.6,1.05,5.35,1.59,8.19,1.59,.1,0,.2,0,.3,0,2.84-.03,5.64-.59,8.31-1.66,2.67-1.07,5.09-2.59,7.18-4.53,2.16-2,3.87-4.36,5.09-7.01,.17-.37,.47-.65,.85-.79,.17-.06,.34-.09,.52-.09m-22.23,15.53c-3.02,0-5.96-.57-8.75-1.69l-.09,.04s0,.09,.05,.11c2.79,1.12,5.75,1.7,8.78,1.7,.11,0,.21,0,.32,0,3.04-.03,6.03-.63,8.88-1.77,2.43-.97,4.67-2.3,6.66-3.96h0c.34-.28,.67-.58,1-.88,2.31-2.14,4.14-4.67,5.45-7.51,.02-.04,0-.09-.05-.11l-.75-.27,.66,.3c-1.3,2.82-3.12,5.34-5.42,7.47-2.22,2.06-4.78,3.68-7.62,4.81-2.84,1.13-5.81,1.73-8.83,1.76-.1,0-.19,0-.29,0m22.23-17.53h0c-.41,0-.81,.07-1.2,.21-.89,.32-1.59,.97-1.99,1.83-1.11,2.41-2.67,4.56-4.63,6.38-1.91,1.77-4.11,3.16-6.56,4.14-2.44,.98-5,1.49-7.59,1.51h-.28c-2.56,0-5.06-.48-7.44-1.44-.42-.17-.86-.26-1.32-.26-.48,0-.96,.1-1.4,.29-.86,.37-1.53,1.07-1.87,1.95-.7,1.79,.19,3.83,1.98,4.55,3.22,1.3,6.63,1.95,10.12,1.95h.31c3.46-.04,6.87-.72,10.12-2.02,2.77-1.11,5.32-2.62,7.59-4.51,.38-.32,.76-.65,1.14-1,2.64-2.45,4.74-5.34,6.23-8.6,.8-1.75,.04-3.84-1.7-4.66-.48-.22-.98-.34-1.51-.34h0Z"/></g></g><g><g><path class="e" d="M319.77,26.85c-.22,.18-.52,.24-.8,.12-8.44-3.39-18.4,.57-22.2,8.83-.18,.4-.66,.57-1.06,.38-.4-.19-.58-.67-.39-1.07,1.02-2.21,2.44-4.17,4.24-5.84,1.74-1.61,3.74-2.87,5.97-3.75,2.22-.88,4.55-1.34,6.92-1.37,2.45-.02,4.85,.42,7.1,1.33,.41,.17,.62,.63,.46,1.04-.05,.13-.13,.24-.23,.32Z"/><path class="e" d="M312.63,24.15c2.39,0,4.71,.45,6.92,1.33,.41,.17,.62,.63,.46,1.04-.05,.13-.13,.24-.23,.32-.14,.12-.32,.18-.51,.18-.1,0-.2-.02-.3-.06-2.05-.82-4.19-1.21-6.31-1.21-6.61,0-13.01,3.79-15.89,10.04-.13,.29-.42,.46-.72,.46-.11,0-.23-.03-.34-.08-.4-.19-.58-.67-.39-1.07,1.02-2.21,2.44-4.17,4.24-5.84,1.74-1.61,3.74-2.87,5.97-3.75,2.22-.88,4.55-1.34,6.92-1.37,.06,0,.13,0,.19,0m0-2h-.21c-2.61,.03-5.18,.53-7.64,1.51-2.45,.97-4.67,2.37-6.58,4.14-1.99,1.85-3.58,4.02-4.7,6.47-.64,1.39-.03,3.05,1.35,3.71,.38,.18,.78,.27,1.2,.27,1.08,0,2.08-.64,2.53-1.62,2.48-5.39,8.01-8.88,14.07-8.88,1.93,0,3.8,.36,5.57,1.07,.33,.13,.69,.2,1.05,.2,.65,0,1.28-.23,1.78-.64,.36-.3,.64-.69,.81-1.13,.55-1.43-.15-3.05-1.57-3.62-2.44-.98-5.02-1.48-7.66-1.48h0Z"/></g><g><path class="e" d="M296.05,36.98c-.22,0-.44-.05-.65-.15-.76-.36-1.09-1.26-.74-2.02,1.06-2.3,2.54-4.34,4.41-6.07,1.8-1.67,3.88-2.98,6.19-3.89,2.31-.92,4.72-1.39,7.18-1.42,2.58-.03,5.03,.44,7.38,1.38,.78,.31,1.16,1.2,.86,1.97-.09,.24-.25,.45-.44,.61-.43,.36-1.01,.45-1.54,.24-8.09-3.25-17.63,.54-21.28,8.46-.17,.37-.47,.65-.85,.79-.17,.06-.34,.09-.52,.09Zm16.58-12.11c-.06,0-.12,0-.18,0-2.28,.02-4.52,.47-6.66,1.32-2.14,.85-4.07,2.06-5.74,3.61-1.73,1.6-3.1,3.49-4.08,5.61-.02,.04,0,.09,.05,.11l.75,.27-.66-.3c3.96-8.6,14.34-12.73,23.13-9.2,.04,.02,.07,0,.08,0h0s.01-.02,.02-.03c.02-.04,0-.09-.05-.11-2.11-.85-4.35-1.28-6.64-1.28Z"/><path class="e" d="M312.69,23.43c2.48,0,4.85,.47,7.12,1.39,.78,.31,1.16,1.2,.86,1.97-.09,.24-.25,.45-.44,.61-.28,.23-.62,.35-.97,.35-.19,0-.39-.04-.57-.11-1.97-.79-4.02-1.16-6.05-1.16-6.33,0-12.47,3.63-15.23,9.62-.17,.37-.47,.65-.85,.79-.17,.06-.34,.09-.52,.09-.22,0-.44-.05-.65-.15-.75-.36-1.09-1.26-.74-2.02,1.06-2.3,2.54-4.34,4.41-6.07,1.8-1.67,3.88-2.98,6.19-3.89,2.31-.92,4.72-1.39,7.18-1.42,.09,0,.17,0,.26,0m-15.93,12.37l-.66-.3c3-6.51,9.67-10.46,16.55-10.46,2.21,0,4.44,.41,6.57,1.27,.01,0,.02,0,.03,0,.02,0,.04-.01,.04-.02h0s.01-.02,.02-.03c.02-.04,0-.09-.05-.11-2.11-.85-4.35-1.28-6.64-1.28-.06,0-.12,0-.18,0-2.28,.02-4.52,.47-6.66,1.32-2.14,.85-4.07,2.06-5.74,3.61-1.73,1.6-3.1,3.49-4.08,5.61-.02,.04,0,.09,.05,.11l.75,.27m15.93-14.37h-.29c-2.7,.03-5.35,.55-7.89,1.56-2.53,1.01-4.82,2.45-6.81,4.28-2.06,1.91-3.7,4.16-4.87,6.7-.8,1.75-.04,3.84,1.7,4.66,.48,.23,.99,.34,1.51,.34,.41,0,.81-.07,1.2-.21,.89-.32,1.59-.97,1.99-1.83,2.37-5.14,7.63-8.47,13.41-8.47,1.84,0,3.62,.34,5.3,1.02,.42,.17,.86,.25,1.32,.25,.82,0,1.62-.29,2.24-.81,.45-.38,.81-.87,1.02-1.42,.7-1.8-.19-3.84-1.98-4.56-2.53-1.02-5.17-1.53-7.87-1.53h0Z"/></g></g><g><g><g><path class="e" d="M364.66,61.95c-.28,.23-.57,.46-.86,.68-2.49,1.9-5.3,3.31-8.34,4.19-3.04,.88-6.16,1.2-9.28,.93-3.23-.28-6.32-1.17-9.18-2.65-.39-.2-.55-.69-.35-1.08,.2-.39,.68-.55,1.07-.34,2.67,1.38,5.55,2.21,8.57,2.47,2.92,.25,5.85-.04,8.71-.87,2.85-.83,5.49-2.15,7.82-3.93,2.42-1.84,4.41-4.09,5.93-6.69,.22-.38,.71-.5,1.09-.28s.51,.72,.29,1.1c-1.44,2.46-3.28,4.64-5.48,6.47Z"/><path class="e" d="M369.44,54.27c.14,0,.28,.04,.41,.11,.38,.23,.51,.72,.29,1.1-1.44,2.46-3.28,4.64-5.48,6.47-.28,.23-.57,.46-.86,.68-2.49,1.9-5.3,3.31-8.34,4.19-2.34,.68-4.73,1.02-7.13,1.02-.72,0-1.44-.03-2.16-.09-3.23-.28-6.32-1.17-9.18-2.65-.39-.2-.55-.69-.35-1.08,.14-.27,.41-.43,.7-.43,.12,0,.25,.03,.37,.09,2.67,1.38,5.55,2.21,8.57,2.47,.67,.06,1.35,.09,2.02,.09,2.25,0,4.49-.32,6.68-.96,2.85-.83,5.49-2.15,7.82-3.93,2.42-1.84,4.41-4.09,5.93-6.69,.15-.25,.41-.39,.68-.39m0-2h0c-.99,0-1.91,.53-2.41,1.38-1.39,2.37-3.21,4.43-5.42,6.11-2.14,1.63-4.55,2.84-7.17,3.6-2.01,.58-4.07,.88-6.13,.88-.61,0-1.24-.03-1.85-.08-2.76-.24-5.39-.99-7.82-2.26-.4-.21-.84-.31-1.29-.31-1.06,0-2.01,.59-2.49,1.53-.69,1.36-.14,3.05,1.22,3.76,3.09,1.6,6.43,2.56,9.93,2.86,.77,.07,1.56,.1,2.33,.1,2.58,0,5.17-.37,7.68-1.1,3.28-.95,6.3-2.47,8.99-4.52,.31-.24,.62-.49,.93-.74,2.38-1.98,4.37-4.33,5.93-7,.77-1.32,.33-3.04-.99-3.82-.44-.26-.93-.4-1.44-.4h0Z"/></g><g><path class="e" d="M348.34,68.57c-.74,0-1.48-.03-2.22-.09-3.33-.29-6.51-1.2-9.45-2.73-.74-.39-1.04-1.3-.67-2.05,.18-.36,.49-.63,.88-.75,.39-.13,.8-.09,1.17,.1,2.58,1.34,5.38,2.14,8.3,2.39,2.83,.24,5.67-.04,8.44-.85,2.77-.8,5.32-2.09,7.59-3.81,2.34-1.78,4.28-3.97,5.75-6.48,.2-.35,.53-.6,.92-.7,.39-.1,.81-.04,1.16,.17,.72,.43,.96,1.36,.54,2.08-1.48,2.53-3.38,4.77-5.64,6.66h0c-.29,.24-.58,.47-.88,.7-2.56,1.95-5.45,3.4-8.57,4.31-2.4,.7-4.86,1.05-7.33,1.05Zm-10.95-4.24l-.1,.03s0,.09,.04,.11c2.77,1.44,5.77,2.3,8.91,2.57,3.03,.26,6.07-.05,9.02-.9,2.95-.86,5.68-2.23,8.1-4.07,.28-.22,.56-.44,.83-.66,2.13-1.78,3.92-3.89,5.32-6.28,.02-.04,0-.09-.04-.12l-.72-.34,.62,.36c-1.56,2.68-3.62,5-6.12,6.9-2.41,1.83-5.12,3.2-8.06,4.05-2.94,.85-5.96,1.16-8.97,.9-3.12-.27-6.09-1.12-8.84-2.55Z"/><path class="e" d="M369.44,53.55c.27,0,.54,.07,.78,.22,.72,.43,.96,1.36,.54,2.08-1.48,2.53-3.38,4.77-5.64,6.66h0c-.29,.24-.58,.47-.88,.7-2.56,1.95-5.45,3.4-8.57,4.31-2.4,.7-4.86,1.05-7.33,1.05-.74,0-1.48-.03-2.22-.09-3.33-.29-6.51-1.2-9.45-2.73-.74-.39-1.04-1.3-.67-2.05,.18-.36,.49-.63,.88-.75,.15-.05,.31-.07,.47-.07,.24,0,.48,.06,.7,.17,2.58,1.34,5.38,2.14,8.3,2.39,.65,.06,1.31,.08,1.96,.08,2.18,0,4.35-.31,6.48-.93,2.77-.8,5.32-2.09,7.59-3.81,2.34-1.78,4.28-3.97,5.75-6.48,.2-.35,.53-.6,.92-.7,.13-.03,.25-.05,.38-.05m-21.12,13.42c-.69,0-1.39-.03-2.08-.09-3.12-.27-6.09-1.12-8.85-2.55l-.1,.03s0,.09,.04,.11c2.77,1.44,5.77,2.3,8.91,2.57,.7,.06,1.4,.09,2.09,.09,2.33,0,4.65-.33,6.93-.99,2.95-.86,5.68-2.23,8.1-4.07,.28-.22,.56-.44,.83-.66,2.13-1.78,3.92-3.89,5.32-6.28,.02-.04,0-.09-.04-.12l-.72-.34,.62,.36c-1.56,2.68-3.62,5-6.12,6.9-2.41,1.83-5.12,3.2-8.06,4.05-2.26,.66-4.57,.99-6.89,.99m21.12-15.42c-.29,0-.59,.04-.87,.11-.92,.24-1.68,.82-2.16,1.63-1.34,2.29-3.1,4.28-5.23,5.9-2.07,1.58-4.4,2.75-6.93,3.48-1.94,.56-3.94,.85-5.93,.85-.59,0-1.19-.03-1.79-.08-2.66-.23-5.21-.96-7.56-2.18-.5-.26-1.06-.4-1.62-.4-.37,0-.73,.06-1.09,.17-.9,.29-1.62,.91-2.05,1.75-.87,1.72-.18,3.84,1.53,4.72,3.17,1.64,6.61,2.63,10.2,2.94,.79,.07,1.59,.1,2.39,.1,2.65,0,5.31-.38,7.88-1.13,3.36-.98,6.47-2.54,9.23-4.64,.21-.16,.43-.33,.64-.5h0l.31-.26c2.44-2.03,4.49-4.45,6.09-7.19,.97-1.66,.41-3.82-1.25-4.81-.55-.33-1.17-.5-1.8-.5h0Z"/></g></g><g><g><path class="e" d="M373.01,45.61c-.15,.12-.35,.19-.56,.18-.44-.03-.78-.41-.76-.85,.06-1.09,.03-2.18-.09-3.26-.05-.44,.27-.83,.71-.87,.44-.04,.83,.28,.88,.72,.12,1.16,.15,2.35,.09,3.51-.01,.23-.12,.43-.28,.57Z"/><path class="e" d="M372.4,40.8c.41,0,.76,.31,.81,.73,.12,1.16,.15,2.35,.09,3.51-.01,.23-.12,.43-.28,.57-.14,.11-.31,.18-.5,.18-.02,0-.04,0-.05,0-.44-.03-.78-.41-.76-.85,.06-1.09,.03-2.18-.09-3.26-.05-.44,.27-.83,.71-.87,.02,0,.05,0,.07,0m0-2c-.08,0-.17,0-.26,.01-.75,.07-1.42,.43-1.9,1.01-.48,.58-.7,1.32-.62,2.07,.1,.97,.13,1.96,.08,2.95-.08,1.53,1.1,2.85,2.62,2.95,.06,0,.12,0,.19,0,.65,0,1.29-.23,1.78-.65,.59-.49,.96-1.22,1-2,.07-1.27,.03-2.56-.1-3.83-.15-1.44-1.35-2.52-2.79-2.52h0Z"/></g><g><path class="e" d="M372.51,46.51s-.07,0-.1,0c-.83-.05-1.47-.78-1.43-1.61,.05-1.05,.03-2.1-.08-3.15-.04-.41,.08-.8,.33-1.12,.26-.31,.62-.51,1.03-.55,.83-.07,1.58,.54,1.66,1.37,.13,1.2,.16,2.42,.1,3.63-.02,.42-.22,.82-.54,1.08-.27,.23-.61,.35-.96,.35Zm-.11-4.99h0l-.06,.08c.12,1.12,.15,2.25,.09,3.38,0,.05,.04,.09,.08,.1h.05s.02-.04,.02-.07c.06-1.13,.03-2.28-.09-3.4,0-.05-.04-.08-.09-.08Z"/><path class="e" d="M372.39,40.08c.78,0,1.45,.59,1.53,1.37,.13,1.2,.16,2.42,.1,3.63-.02,.42-.22,.82-.54,1.08-.27,.23-.61,.35-.96,.35-.03,0-.07,0-.1,0-.83-.05-1.47-.78-1.43-1.61,.05-1.05,.03-2.1-.08-3.15-.04-.41,.07-.8,.33-1.12,.26-.31,.62-.51,1.03-.55,.04,0,.09,0,.13,0m.11,4.99h.05s.02-.04,.02-.07c.06-1.13,.03-2.28-.09-3.4,0-.05-.04-.08-.09-.08h0l-.06,.08c.12,1.12,.15,2.25,.09,3.38,0,.05,.04,.09,.08,.1m-.11-6.99c-.1,0-.2,0-.3,.01-.96,.09-1.81,.54-2.4,1.27-.6,.73-.87,1.65-.77,2.6,.1,.94,.12,1.89,.07,2.83-.1,1.92,1.38,3.58,3.29,3.71,.07,0,.16,0,.24,0,.82,0,1.61-.29,2.24-.81,.75-.62,1.21-1.54,1.26-2.51,.07-1.31,.03-2.64-.1-3.94-.19-1.8-1.7-3.16-3.52-3.16h0Z"/></g></g><g><g><path class="e" d="M372.92,42.22c-.12,.1-.27,.16-.43,.18-.44,.04-.83-.28-.88-.72-.18-1.68-.56-3.34-1.14-4.92-.15-.42,.06-.87,.47-1.02,.41-.15,.87,.07,1.03,.49,.62,1.71,1.04,3.5,1.23,5.31,.03,.27-.08,.53-.28,.69Z"/><path class="e" d="M371.21,35.68c.33,0,.64,.21,.76,.54,.62,1.71,1.04,3.5,1.23,5.31,.03,.27-.08,.53-.28,.69-.12,.1-.27,.16-.43,.18-.02,0-.05,0-.07,0-.41,0-.76-.31-.81-.73-.18-1.68-.56-3.34-1.14-4.92-.15-.42,.06-.87,.47-1.02,.09-.03,.18-.05,.26-.05m0-2h0c-.32,0-.63,.05-.93,.16-.71,.25-1.27,.76-1.59,1.44-.32,.68-.35,1.45-.1,2.15,.52,1.43,.87,2.93,1.03,4.45,.15,1.44,1.35,2.52,2.79,2.52,.08,0,.17,0,.26-.01,.57-.05,1.09-.27,1.53-.63,.72-.59,1.08-1.51,.99-2.44-.21-1.98-.66-3.92-1.34-5.79-.4-1.11-1.46-1.85-2.64-1.85h0Z"/></g><g><path class="e" d="M372.42,43.12c-.77,0-1.44-.59-1.52-1.37-.17-1.62-.54-3.22-1.1-4.75-.14-.39-.12-.8,.05-1.17,.17-.37,.48-.64,.86-.78,.78-.28,1.66,.14,1.94,.92,.64,1.77,1.07,3.61,1.27,5.48,.05,.5-.15,1-.53,1.32h0c-.23,.2-.52,.31-.82,.34-.05,0-.09,0-.14,0Zm0-1.44l.5,.54-.46-.55s.03-.03,.02-.06c-.19-1.75-.59-3.48-1.19-5.14-.02-.05-.07-.07-.11-.06l-.04,.09c.6,1.64,1,3.36,1.18,5.1,0,.05,.07,.09,.09,.08Z"/><path class="e" d="M371.21,34.96c.62,0,1.21,.39,1.44,1.01,.65,1.77,1.07,3.61,1.27,5.48,.05,.5-.15,1-.53,1.32h0c-.23,.2-.52,.31-.82,.34-.05,0-.09,0-.14,0-.77,0-1.44-.59-1.52-1.37-.17-1.62-.54-3.22-1.1-4.75-.14-.39-.12-.8,.05-1.17,.17-.37,.48-.64,.86-.78,.17-.06,.34-.09,.5-.09m1.21,6.72h0l.5,.54-.46-.55s.03-.03,.02-.06c-.19-1.75-.59-3.48-1.19-5.14-.01-.04-.05-.06-.08-.06,0,0-.02,0-.02,0l-.04,.09c.6,1.64,1,3.36,1.18,5.1,0,.05,.06,.08,.09,.08m-1.21-8.72h0c-.4,0-.79,.07-1.17,.2-.89,.31-1.6,.96-2,1.81-.4,.86-.44,1.82-.12,2.71,.5,1.38,.83,2.81,.99,4.27,.19,1.8,1.7,3.16,3.51,3.16,.1,0,.21,0,.31-.01,.72-.07,1.38-.34,1.93-.79l.02-.02,.02-.02c.87-.73,1.33-1.87,1.21-3.04-.21-2.03-.68-4.04-1.38-5.96-.51-1.39-1.84-2.32-3.32-2.32h0Z"/></g></g><g><g><path class="e" d="M371.74,37.1c-.07,.06-.15,.1-.24,.14-.41,.15-.87-.07-1.03-.49-.88-2.41-2.19-4.62-3.89-6.56-1.76-2.01-3.89-3.67-6.32-4.93-.39-.2-.55-.69-.35-1.08,.2-.39,.68-.55,1.07-.34,2.62,1.36,4.91,3.14,6.8,5.3,1.83,2.09,3.24,4.47,4.19,7.07,.12,.33,.02,.68-.23,.89Z"/><path class="e" d="M360.61,23.75c.12,0,.25,.03,.37,.09,2.62,1.36,4.91,3.14,6.8,5.3,1.83,2.09,3.24,4.47,4.19,7.07,.12,.33,.02,.68-.23,.89-.07,.06-.15,.1-.24,.14-.09,.03-.18,.05-.26,.05-.33,0-.64-.21-.76-.54-.88-2.41-2.19-4.62-3.89-6.56-1.76-2.01-3.89-3.67-6.32-4.93-.39-.2-.55-.69-.35-1.08,.14-.27,.42-.43,.7-.43m0-2h0c-1.06,0-2.01,.59-2.49,1.53-.69,1.37-.14,3.05,1.22,3.76,2.21,1.15,4.14,2.65,5.74,4.47,1.54,1.75,2.72,3.75,3.51,5.92,.4,1.11,1.46,1.85,2.64,1.85,.32,0,.63-.05,.93-.16,.31-.11,.6-.27,.85-.48,.9-.75,1.24-2,.83-3.11-1.03-2.83-2.57-5.43-4.57-7.7-2.06-2.35-4.54-4.29-7.39-5.76-.4-.21-.84-.31-1.29-.31h0Z"/></g><g><path class="e" d="M371.24,38c-.62,0-1.21-.39-1.44-1.01-.85-2.33-2.11-4.46-3.75-6.33-1.7-1.94-3.76-3.54-6.11-4.76-.74-.39-1.04-1.3-.67-2.05,.18-.36,.49-.63,.88-.75,.39-.13,.8-.09,1.17,.1,2.7,1.4,5.06,3.24,7.01,5.47,1.89,2.16,3.35,4.62,4.33,7.3,.22,.6,.04,1.28-.45,1.69h0c-.14,.11-.29,.2-.46,.26-.17,.06-.34,.09-.5,.09Zm.02-1.45l.48,.54-.46-.55s.03-.05,.02-.08c-.92-2.52-2.28-4.82-4.06-6.84-1.83-2.09-4.05-3.82-6.59-5.14l-.1,.03s0,.09,.04,.11c2.52,1.3,4.72,3.02,6.54,5.09,1.76,2.01,3.11,4.29,4.02,6.79,.02,.05,.07,.07,.11,.06Z"/><path class="e" d="M360.61,23.03c.24,0,.48,.06,.7,.17,2.7,1.4,5.06,3.24,7.01,5.47,1.89,2.16,3.35,4.62,4.33,7.3,.22,.6,.04,1.28-.45,1.69h0c-.14,.11-.29,.2-.46,.26-.17,.06-.34,.09-.5,.09-.62,0-1.21-.39-1.44-1.01-.85-2.33-2.11-4.46-3.75-6.33-1.7-1.94-3.76-3.54-6.11-4.76-.74-.39-1.04-1.3-.67-2.05,.18-.36,.49-.63,.88-.75,.15-.05,.31-.07,.47-.07m10.62,13.53s.02,0,.02,0l.48,.54-.46-.55s.03-.04,.02-.08c-.92-2.52-2.28-4.82-4.06-6.84-1.83-2.09-4.05-3.82-6.59-5.14l-.1,.03s0,.09,.04,.11c2.52,1.3,4.72,3.02,6.54,5.09,1.76,2.01,3.11,4.29,4.02,6.79,.01,.04,.05,.06,.08,.06m-10.62-15.53c-.37,0-.73,.06-1.09,.17-.89,.29-1.62,.91-2.05,1.75-.87,1.72-.18,3.84,1.53,4.72,2.13,1.11,3.99,2.55,5.53,4.31,1.48,1.69,2.61,3.6,3.38,5.7,.5,1.39,1.84,2.32,3.32,2.32,.4,0,.79-.07,1.17-.2,.39-.14,.75-.34,1.06-.6l.1-.08,.02-.02c1.05-.95,1.43-2.46,.94-3.81-1.07-2.92-2.65-5.59-4.7-7.94-2.12-2.42-4.67-4.41-7.59-5.93-.5-.26-1.06-.4-1.62-.4h0Z"/></g></g><g><g><path class="e" d="M361.14,25.17c-.24,.2-.58,.24-.88,.09-2.67-1.38-5.55-2.21-8.57-2.47-2.92-.25-5.85,.04-8.71,.87-2.85,.83-5.49,2.15-7.82,3.93-2.42,1.84-4.41,4.09-5.93,6.69-.22,.38-.71,.5-1.09,.28-.38-.23-.51-.72-.29-1.1,1.62-2.78,3.75-5.18,6.34-7.15,2.49-1.9,5.3-3.31,8.34-4.19,3.04-.88,6.16-1.2,9.28-.93,3.23,.28,6.32,1.17,9.18,2.65,.39,.2,.55,.69,.35,1.08-.05,.1-.12,.18-.2,.25Z"/><path class="e" d="M349.64,21.1c.72,0,1.44,.03,2.16,.09,3.23,.28,6.32,1.17,9.18,2.65,.39,.2,.55,.69,.35,1.08-.05,.1-.12,.18-.2,.25-.14,.12-.32,.18-.51,.18-.12,0-.25-.03-.37-.09-2.67-1.38-5.55-2.21-8.57-2.47-.67-.06-1.35-.09-2.02-.09-2.25,0-4.49,.32-6.68,.96-2.85,.83-5.49,2.15-7.82,3.93-2.42,1.84-4.41,4.09-5.93,6.69-.15,.25-.41,.39-.68,.39-.14,0-.28-.04-.41-.11-.38-.23-.51-.72-.29-1.1,1.62-2.78,3.75-5.18,6.34-7.15,2.49-1.9,5.3-3.31,8.34-4.19,2.34-.68,4.73-1.02,7.13-1.02m0-2c-2.58,0-5.17,.37-7.68,1.1-3.28,.95-6.3,2.47-8.99,4.52-2.79,2.13-5.1,4.73-6.85,7.73-.77,1.32-.33,3.04,.99,3.82,.44,.26,.93,.4,1.44,.4,.99,0,1.91-.53,2.41-1.38,1.39-2.37,3.21-4.43,5.42-6.11,2.14-1.63,4.55-2.84,7.17-3.6,2.01-.58,4.07-.88,6.13-.88,.61,0,1.24,.03,1.85,.08,2.76,.24,5.39,.99,7.82,2.26,.4,.21,.84,.31,1.29,.31,.65,0,1.28-.23,1.78-.64,.29-.25,.53-.54,.71-.89,.69-1.36,.14-3.05-1.22-3.76-3.09-1.6-6.43-2.56-9.93-2.86-.77-.07-1.56-.1-2.33-.1h0Z"/></g><g><path class="e" d="M328.54,35.4c-.27,0-.54-.07-.78-.22-.72-.43-.96-1.36-.54-2.08,1.67-2.86,3.87-5.34,6.52-7.36,2.56-1.95,5.45-3.4,8.57-4.31,3.13-.91,6.34-1.23,9.55-.96,3.33,.28,6.51,1.2,9.45,2.73,.74,.39,1.04,1.3,.67,2.05-.09,.18-.22,.35-.38,.48h0c-.47,.39-1.12,.46-1.67,.18-2.58-1.34-5.37-2.14-8.3-2.39-2.84-.24-5.68,.04-8.44,.85-2.77,.8-5.32,2.09-7.59,3.81-2.34,1.78-4.28,3.96-5.75,6.48-.2,.35-.53,.6-.93,.7-.13,.03-.25,.05-.38,.05Zm21.1-13.58c-2.33,0-4.65,.33-6.93,.99-2.95,.86-5.68,2.23-8.1,4.07-2.51,1.91-4.58,4.24-6.15,6.94-.02,.04,0,.09,.04,.12l.72,.34-.62-.36c1.57-2.68,3.62-5.01,6.12-6.9,2.41-1.83,5.12-3.2,8.06-4.05,2.94-.85,5.96-1.16,8.97-.9,3.12,.27,6.09,1.13,8.84,2.55,.04,.02,.08,0,.08,0,0,0,.01-.01,.01-.02,.02-.04,0-.09-.04-.12-2.77-1.44-5.77-2.3-8.91-2.57-.7-.06-1.4-.09-2.1-.09Z"/><path class="e" d="M349.64,20.38c.74,0,1.48,.03,2.22,.1,3.33,.28,6.51,1.2,9.45,2.73,.74,.39,1.04,1.3,.67,2.05-.09,.18-.22,.35-.38,.48h0c-.28,.23-.62,.35-.96,.35-.24,0-.48-.06-.7-.17-2.58-1.34-5.38-2.14-8.3-2.39-.65-.06-1.31-.08-1.96-.08-2.18,0-4.35,.31-6.48,.93-2.77,.8-5.32,2.09-7.59,3.81-2.34,1.78-4.28,3.96-5.75,6.48-.2,.35-.53,.6-.93,.7-.13,.03-.25,.05-.38,.05-.27,0-.54-.07-.78-.22-.72-.43-.96-1.36-.54-2.08,1.67-2.86,3.87-5.34,6.52-7.36,2.56-1.95,5.45-3.4,8.57-4.31,2.4-.7,4.86-1.05,7.33-1.05m-20.42,13.91l-.62-.36c1.57-2.68,3.62-5.01,6.12-6.9,2.41-1.83,5.12-3.2,8.06-4.05,2.26-.66,4.57-.99,6.89-.99,.69,0,1.39,.03,2.08,.09,3.12,.27,6.09,1.13,8.84,2.55,.01,0,.03,0,.04,0,.02,0,.04-.01,.05-.01,0,0,.01-.01,.01-.02,.02-.04,0-.09-.04-.12-2.77-1.44-5.77-2.3-8.91-2.57-.7-.06-1.4-.09-2.1-.09-2.33,0-4.65,.33-6.93,.99-2.95,.86-5.68,2.23-8.1,4.07-2.51,1.91-4.58,4.24-6.15,6.94-.02,.04,0,.09,.04,.12l.72,.34m20.42-15.91c-2.65,0-5.3,.38-7.88,1.13-3.36,.98-6.47,2.54-9.23,4.64-2.87,2.18-5.23,4.86-7.04,7.94-.97,1.66-.41,3.82,1.25,4.81,.55,.33,1.17,.5,1.8,.5,.3,0,.6-.04,.88-.11,.91-.23,1.67-.81,2.15-1.63,1.34-2.29,3.1-4.28,5.23-5.9,2.07-1.58,4.4-2.75,6.94-3.48,1.94-.56,3.93-.85,5.92-.85,.59,0,1.2,.03,1.79,.08,2.67,.23,5.21,.96,7.55,2.18,.5,.26,1.06,.4,1.62,.4,.82,0,1.62-.29,2.25-.82,.37-.31,.67-.69,.89-1.12,.86-1.71,.18-3.83-1.54-4.72-3.18-1.65-6.61-2.64-10.2-2.94-.79-.07-1.6-.1-2.39-.1h0Z"/></g></g><g><g><path class="e" d="M337.88,65.01c-.24,.2-.58,.24-.88,.09-2.84-1.47-5.28-3.44-7.26-5.84-1.91-2.33-3.32-4.97-4.17-7.85-.87-2.93-1.12-5.95-.76-8.99,.37-3.14,1.39-6.16,3.03-8.96,.22-.38,.71-.5,1.09-.28,.38,.23,.51,.72,.29,1.1-1.53,2.62-2.48,5.42-2.82,8.35-.34,2.82-.1,5.63,.7,8.34,.79,2.67,2.09,5.12,3.86,7.28,1.84,2.24,4.11,4.06,6.75,5.43,.39,.2,.55,.69,.35,1.08-.05,.1-.12,.18-.2,.25Z"/><path class="e" d="M328.52,33.07c.14,0,.28,.04,.41,.11,.38,.23,.51,.72,.29,1.1-1.53,2.62-2.48,5.42-2.82,8.35-.34,2.82-.1,5.63,.7,8.34,.79,2.67,2.09,5.12,3.86,7.28,1.84,2.24,4.11,4.06,6.75,5.43,.39,.2,.55,.69,.35,1.08-.05,.1-.12,.18-.2,.25-.14,.12-.32,.18-.51,.18-.12,0-.25-.03-.37-.09-2.84-1.47-5.28-3.44-7.26-5.84-1.91-2.33-3.32-4.97-4.17-7.85-.87-2.93-1.12-5.95-.76-8.99,.37-3.14,1.39-6.16,3.03-8.96,.15-.25,.41-.39,.68-.39m0-2h0c-.99,0-1.91,.53-2.41,1.38-1.77,3.04-2.88,6.32-3.29,9.73-.39,3.31-.11,6.6,.83,9.79,.93,3.14,2.46,6.02,4.54,8.55,2.15,2.62,4.8,4.75,7.89,6.35,.4,.21,.84,.31,1.29,.31,.65,0,1.29-.23,1.79-.64,.3-.25,.53-.55,.71-.89,.69-1.36,.14-3.05-1.22-3.76-2.4-1.24-4.46-2.9-6.13-4.93-1.6-1.95-2.78-4.16-3.49-6.57-.73-2.45-.94-4.99-.64-7.54,.31-2.65,1.18-5.2,2.57-7.58,.77-1.32,.33-3.04-.99-3.83-.44-.26-.93-.4-1.44-.4h0Z"/></g><g><path class="e" d="M337.37,65.92c-.24,0-.48-.06-.7-.17-2.93-1.52-5.44-3.54-7.49-6.03-1.97-2.4-3.42-5.13-4.3-8.1-.89-3.02-1.16-6.14-.79-9.28,.39-3.24,1.44-6.35,3.12-9.24,.2-.35,.53-.6,.93-.7,.39-.1,.81-.04,1.16,.17,.72,.43,.96,1.36,.54,2.08-1.48,2.53-2.4,5.24-2.73,8.07-.32,2.72-.09,5.43,.68,8.05,.76,2.58,2.02,4.94,3.73,7.02,1.78,2.16,3.97,3.93,6.52,5.25,.74,.38,1.04,1.3,.67,2.05-.09,.18-.22,.34-.38,.48h0c-.28,.23-.62,.35-.97,.35Zm-9.53-32.46l.62,.36c-1.59,2.72-2.57,5.64-2.94,8.68-.35,2.94-.1,5.87,.74,8.7,.83,2.79,2.18,5.35,4.03,7.6,1.92,2.33,4.28,4.24,7.04,5.66,.04,.02,.07,0,.08,0,0,0,.01-.02,.02-.02,.02-.04,0-.09-.04-.12-2.73-1.41-5.08-3.3-6.98-5.61-1.84-2.23-3.18-4.77-4-7.53-.83-2.81-1.08-5.71-.73-8.63,.36-3.02,1.34-5.93,2.92-8.63,.02-.04,0-.09-.04-.12l-.72-.34Z"/><path class="e" d="M328.53,32.35c.27,0,.54,.07,.78,.22,.72,.43,.96,1.36,.54,2.08-1.48,2.53-2.4,5.24-2.73,8.07-.32,2.72-.1,5.43,.68,8.05,.76,2.58,2.02,4.94,3.73,7.02,1.78,2.16,3.97,3.93,6.52,5.25,.74,.38,1.04,1.3,.67,2.05-.09,.18-.22,.34-.38,.48h0c-.28,.23-.62,.35-.97,.35-.24,0-.48-.06-.7-.17-2.93-1.52-5.44-3.54-7.49-6.03-1.97-2.4-3.42-5.13-4.3-8.1-.89-3.02-1.16-6.14-.79-9.28,.39-3.24,1.44-6.35,3.12-9.24,.2-.35,.53-.6,.92-.7,.13-.03,.25-.05,.38-.05m8.85,32.12s.04-.01,.04-.02c0,0,.01-.02,.02-.02,.02-.04,0-.09-.04-.12-2.73-1.41-5.08-3.3-6.98-5.61-1.83-2.23-3.18-4.77-4-7.53-.83-2.81-1.08-5.71-.73-8.63,.36-3.02,1.34-5.93,2.92-8.63,.02-.04,0-.09-.04-.12l-.72-.34,.62,.36c-1.59,2.72-2.57,5.64-2.94,8.68-.35,2.94-.1,5.87,.74,8.7,.83,2.79,2.18,5.35,4.03,7.6,1.92,2.33,4.28,4.24,7.04,5.66,.01,0,.03,.01,.04,.01m-8.85-34.12c-.3,0-.59,.04-.88,.11-.92,.24-1.68,.82-2.16,1.63-1.83,3.13-2.96,6.5-3.38,10.01-.4,3.41-.12,6.8,.85,10.08,.96,3.23,2.53,6.2,4.67,8.81,2.21,2.69,4.94,4.89,8.11,6.53,.5,.26,1.06,.4,1.62,.4,.82,0,1.62-.29,2.25-.81l.02-.02,.02-.02c.34-.28,.64-.66,.85-1.09,.86-1.71,.17-3.83-1.54-4.72-2.31-1.2-4.3-2.79-5.9-4.74-1.54-1.88-2.67-4-3.36-6.32-.7-2.36-.9-4.79-.61-7.25,.3-2.55,1.13-5.01,2.47-7.3,.97-1.66,.41-3.82-1.25-4.81-.55-.33-1.17-.5-1.8-.5h0Z"/></g></g></g><g><g><g><path class="e" d="M286.46,92.23c-.12,.1-.26,.16-.42,.18-4.84,.49-9.63-.41-13.87-2.61-.39-.2-.55-.69-.35-1.08,.2-.39,.68-.55,1.07-.34,3.96,2.05,8.45,2.89,12.97,2.44,.44-.04,.83,.28,.89,.72,.03,.28-.08,.54-.28,.7Z"/><path class="e" d="M272.51,88.28c.12,0,.25,.03,.37,.09,3.26,1.69,6.87,2.56,10.57,2.56,.8,0,1.6-.04,2.4-.12,.03,0,.05,0,.08,0,.41,0,.76,.31,.8,.72,.03,.28-.08,.54-.28,.7-.12,.1-.26,.16-.42,.18-.85,.09-1.71,.13-2.56,.13-3.96,0-7.82-.93-11.31-2.74-.39-.2-.55-.69-.35-1.08,.14-.27,.41-.43,.7-.43m0-2c-1.06,0-2.01,.59-2.49,1.53-.69,1.37-.14,3.05,1.22,3.76,3.74,1.94,7.97,2.96,12.23,2.96,.92,0,1.84-.05,2.76-.14,.56-.06,1.07-.27,1.5-.63,.73-.61,1.09-1.53,.99-2.47-.16-1.42-1.36-2.49-2.79-2.49-.09,0-.19,0-.28,.01-.73,.07-1.47,.11-2.2,.11-3.37,0-6.71-.81-9.65-2.33-.4-.21-.84-.31-1.29-.31h0Z"/></g><g><path class="e" d="M283.48,93.26c-4.07,0-8.05-.96-11.65-2.82-.74-.39-1.04-1.3-.67-2.05,.18-.36,.5-.63,.88-.75,.39-.12,.8-.09,1.17,.1,3.84,1.99,8.18,2.8,12.57,2.36,.83-.09,1.58,.52,1.67,1.35,.06,.51-.14,1.01-.53,1.34h0c-.23,.19-.51,.31-.81,.34-.88,.09-1.76,.13-2.63,.13Zm-10.93-4.24l-.1,.03s0,.09,.04,.11c4.11,2.13,8.78,3.01,13.47,2.53h.03s.03-.04,.02-.08c0-.05-.04-.09-.1-.08-4.67,.47-9.29-.4-13.38-2.51Z"/><path class="e" d="M272.51,87.56c.24,0,.48,.06,.7,.17,3.16,1.64,6.66,2.48,10.25,2.48,.77,0,1.55-.04,2.32-.12,.05,0,.1,0,.16,0,.76,0,1.43,.58,1.52,1.36,.06,.51-.14,1.01-.53,1.34-.23,.19-.51,.31-.81,.34-.88,.09-1.76,.13-2.63,.13-4.07,0-8.05-.96-11.65-2.82-.74-.39-1.04-1.3-.67-2.05,.18-.36,.5-.63,.88-.75,.15-.05,.31-.07,.47-.07m10.97,4.25c.83,0,1.66-.04,2.49-.13h.03s.03-.04,.02-.08c0-.05-.04-.08-.09-.08h0c-.83,.08-1.65,.13-2.47,.13-3.82,0-7.55-.9-10.91-2.64l-.1,.03s0,.09,.04,.11c3.39,1.75,7.14,2.66,10.98,2.66m-10.97-6.25c-.37,0-.73,.06-1.08,.17-.9,.29-1.63,.91-2.05,1.76-.87,1.72-.18,3.84,1.53,4.72,3.84,1.99,8.19,3.04,12.57,3.04,.94,0,1.89-.05,2.83-.14,.7-.07,1.36-.35,1.89-.8,.91-.76,1.38-1.92,1.24-3.1-.2-1.79-1.71-3.13-3.51-3.13-.12,0-.24,0-.36,.02-.7,.07-1.42,.11-2.12,.11-3.26,0-6.48-.78-9.33-2.25-.5-.26-1.06-.4-1.62-.4h0Z"/></g></g><g><g><path class="e" d="M299.81,86.65c-.88,.73-1.81,1.41-2.79,2.01-.37,.23-.87,.11-1.1-.26-.24-.38-.13-.87,.25-1.1,1.58-.98,3.03-2.14,4.32-3.46,1.33-1.35,2.48-2.86,3.43-4.49,.22-.38,.71-.5,1.09-.28,.38,.23,.51,.72,.29,1.1-1.02,1.74-2.25,3.36-3.67,4.8-.58,.59-1.18,1.15-1.82,1.67Z"/><path class="e" d="M304.6,78.96c.14,0,.28,.04,.41,.11,.38,.23,.51,.72,.29,1.1-1.02,1.74-2.25,3.36-3.67,4.8-.58,.59-1.18,1.15-1.82,1.67-.88,.73-1.81,1.41-2.79,2.01-.13,.08-.27,.12-.42,.12-.27,0-.53-.14-.69-.38-.24-.38-.13-.87,.25-1.1,1.58-.98,3.03-2.14,4.32-3.46,1.33-1.35,2.48-2.86,3.43-4.49,.15-.25,.41-.39,.68-.39m0-2h0c-.99,0-1.91,.53-2.41,1.38-.87,1.49-1.92,2.87-3.13,4.1-1.18,1.2-2.51,2.26-3.95,3.16-.63,.39-1.07,1.01-1.24,1.74-.17,.73-.04,1.49,.36,2.12,.52,.82,1.41,1.32,2.38,1.32,.52,0,1.03-.15,1.47-.42,1.05-.65,2.06-1.39,3.01-2.18,.68-.57,1.34-1.18,1.96-1.81,1.53-1.56,2.87-3.31,3.97-5.19,.77-1.32,.33-3.04-.99-3.83-.43-.26-.93-.4-1.44-.4h0Z"/></g><g><path class="e" d="M296.61,89.5c-.51,0-1.01-.26-1.3-.72-.22-.35-.29-.76-.2-1.16,.09-.39,.33-.73,.67-.94,1.53-.95,2.94-2.08,4.18-3.35,1.28-1.31,2.4-2.77,3.32-4.35,.2-.35,.53-.6,.93-.7,.4-.1,.81-.04,1.16,.17,.72,.43,.96,1.36,.54,2.08-1.05,1.79-2.32,3.46-3.78,4.94-.59,.6-1.22,1.18-1.87,1.72h0c-.9,.75-1.87,1.45-2.87,2.07-.25,.15-.52,.23-.8,.23Zm7.31-10.15l.62,.36c-.98,1.68-2.17,3.24-3.54,4.63-1.33,1.35-2.82,2.55-4.45,3.56l-.02,.11s.08,.06,.11,.03c.95-.59,1.86-1.25,2.71-1.96h0c.61-.51,1.21-1.06,1.76-1.62,1.38-1.4,2.57-2.97,3.56-4.66,.02-.04,0-.09-.04-.12l-.72-.34Z"/><path class="e" d="M304.6,78.24c.27,0,.54,.07,.78,.22,.72,.43,.96,1.36,.54,2.08-1.05,1.79-2.32,3.46-3.78,4.94-.59,.6-1.22,1.18-1.87,1.72-.9,.75-1.87,1.45-2.87,2.07-.25,.15-.52,.23-.8,.23-.51,0-1.01-.26-1.3-.72-.22-.35-.29-.76-.2-1.16,.09-.39,.33-.73,.67-.94,1.53-.95,2.94-2.08,4.18-3.35,1.28-1.31,2.4-2.77,3.33-4.35,.2-.35,.53-.6,.92-.7,.13-.03,.25-.05,.38-.05m-7.99,9.82s.02,0,.04,0c.95-.59,1.86-1.25,2.71-1.96h0c.61-.51,1.21-1.06,1.76-1.62,1.38-1.4,2.57-2.97,3.56-4.66,.02-.04,0-.09-.04-.12l-.72-.34,.62,.36c-.98,1.68-2.17,3.24-3.54,4.63-1.33,1.35-2.82,2.55-4.45,3.56l-.02,.11s.05,.04,.08,.04m7.99-11.82h0c-.3,0-.59,.04-.88,.11-.91,.24-1.68,.82-2.15,1.63-.84,1.43-1.85,2.76-3.02,3.95-1.14,1.16-2.42,2.18-3.81,3.05-.8,.5-1.35,1.28-1.56,2.19-.21,.92-.05,1.87,.45,2.67,.65,1.03,1.77,1.65,2.99,1.65,.66,0,1.3-.18,1.85-.53,1.08-.67,2.12-1.42,3.09-2.23,.7-.59,1.38-1.21,2.02-1.86,1.57-1.6,2.95-3.4,4.08-5.33,.97-1.67,.41-3.82-1.25-4.81-.55-.33-1.17-.5-1.8-.5h0Z"/></g></g><g><g><path class="e" d="M305.12,80.38c-.25,.21-.62,.25-.92,.07-.38-.23-.51-.72-.29-1.1,1.53-2.62,2.48-5.42,2.82-8.35,.34-2.82,.1-5.63-.71-8.34-.79-2.67-2.09-5.12-3.86-7.28-1.84-2.24-4.11-4.06-6.75-5.43-.39-.2-.55-.69-.35-1.08,.2-.39,.68-.55,1.07-.34,2.84,1.47,5.28,3.44,7.26,5.84,1.91,2.33,3.32,4.97,4.17,7.85,.87,2.93,1.12,5.95,.76,8.99-.37,3.14-1.39,6.16-3.03,8.96-.05,.08-.11,.15-.18,.21Z"/><path class="e" d="M295.77,48.44c.12,0,.25,.03,.37,.09,2.84,1.47,5.28,3.44,7.26,5.84,1.91,2.33,3.32,4.97,4.17,7.85,.87,2.93,1.12,5.95,.76,8.99-.37,3.14-1.39,6.16-3.03,8.96-.05,.08-.11,.15-.18,.21-.14,.12-.32,.18-.51,.18-.14,0-.28-.04-.41-.11-.38-.23-.51-.72-.29-1.1,1.53-2.62,2.48-5.42,2.82-8.35,.34-2.82,.1-5.63-.7-8.34-.79-2.67-2.09-5.12-3.86-7.28-1.84-2.24-4.11-4.06-6.75-5.43-.39-.2-.55-.69-.35-1.08,.14-.27,.42-.43,.7-.43m0-2h0c-1.06,0-2.01,.59-2.49,1.53-.69,1.37-.14,3.05,1.22,3.76,2.4,1.24,4.46,2.9,6.13,4.93,1.6,1.95,2.78,4.16,3.49,6.57,.73,2.45,.94,4.99,.64,7.54-.31,2.65-1.18,5.2-2.57,7.58-.77,1.32-.33,3.04,.99,3.83,.44,.26,.93,.4,1.44,.4,.65,0,1.29-.23,1.79-.65,.25-.21,.46-.46,.62-.74,1.77-3.04,2.88-6.32,3.29-9.73,.39-3.31,.11-6.6-.83-9.79-.93-3.14-2.46-6.02-4.54-8.55-2.15-2.62-4.8-4.75-7.89-6.35-.4-.21-.84-.31-1.29-.31h0Z"/></g><g><path class="e" d="M304.62,81.28c-.27,0-.54-.07-.78-.21-.72-.43-.96-1.36-.54-2.08,1.48-2.53,2.4-5.25,2.73-8.07,.32-2.72,.09-5.43-.68-8.05-.76-2.58-2.02-4.94-3.73-7.02-1.77-2.16-3.97-3.93-6.53-5.25-.74-.39-1.04-1.3-.67-2.05,.18-.36,.5-.63,.88-.75,.39-.12,.8-.09,1.17,.1,2.93,1.52,5.45,3.54,7.49,6.03,1.97,2.4,3.42,5.13,4.3,8.1,.89,3.02,1.16,6.14,.79,9.28-.39,3.24-1.44,6.35-3.12,9.24-.09,.15-.2,.29-.34,.4h0c-.28,.23-.62,.35-.97,.35Zm-8.81-32.11l-.1,.03s0,.09,.04,.11c2.73,1.41,5.08,3.3,6.98,5.61,1.84,2.23,3.18,4.77,4,7.53,.83,2.81,1.08,5.71,.73,8.63-.36,3.02-1.34,5.92-2.92,8.63-.02,.04,0,.09,.04,.12,.04,.02,.07,0,.09,0,0,0,.01-.01,.02-.02,1.58-2.72,2.57-5.64,2.93-8.68,.35-2.94,.1-5.87-.74-8.7-.83-2.79-2.18-5.34-4.03-7.6-1.92-2.33-4.28-4.24-7.03-5.66Z"/><path class="e" d="M295.77,47.72c.24,0,.48,.06,.7,.17,2.93,1.52,5.45,3.54,7.49,6.03,1.97,2.4,3.42,5.13,4.3,8.1,.89,3.02,1.16,6.14,.79,9.28-.39,3.24-1.44,6.35-3.12,9.24-.09,.15-.2,.29-.34,.4h0c-.28,.23-.62,.35-.97,.35-.27,0-.54-.07-.78-.21-.72-.43-.96-1.36-.54-2.08,1.48-2.53,2.4-5.25,2.73-8.07,.32-2.72,.09-5.43-.68-8.05-.76-2.58-2.02-4.94-3.73-7.02-1.77-2.16-3.97-3.93-6.53-5.25-.74-.39-1.04-1.3-.67-2.05,.18-.36,.5-.63,.88-.75,.15-.05,.31-.07,.47-.07m8.85,32.12s.03,0,.04-.01c0,0,.01-.01,.02-.02,1.58-2.72,2.57-5.64,2.94-8.68,.35-2.94,.1-5.87-.74-8.7-.83-2.79-2.18-5.34-4.03-7.6-1.92-2.33-4.28-4.24-7.03-5.66l-.1,.03s0,.09,.04,.11c2.73,1.41,5.08,3.3,6.98,5.61,1.83,2.23,3.18,4.77,4,7.53,.83,2.81,1.08,5.71,.73,8.63-.36,3.02-1.34,5.92-2.92,8.63-.02,.04,0,.09,.04,.12,.02,0,.03,.01,.04,.01m-8.85-34.12c-.37,0-.73,.06-1.08,.17-.9,.29-1.63,.91-2.05,1.76-.87,1.72-.18,3.83,1.53,4.72,2.31,1.2,4.3,2.8,5.9,4.74,1.54,1.88,2.67,4,3.36,6.32,.7,2.36,.9,4.79,.61,7.25-.3,2.55-1.14,5.01-2.47,7.3-.97,1.66-.41,3.82,1.25,4.81,.55,.33,1.17,.5,1.81,.5,.78,0,1.55-.26,2.16-.74h.02l.07-.07c.31-.26,.57-.57,.78-.92,1.83-3.14,2.97-6.51,3.39-10.02,.41-3.41,.12-6.8-.85-10.08-.96-3.23-2.53-6.2-4.67-8.81-2.21-2.69-4.94-4.89-8.11-6.53-.5-.26-1.06-.4-1.62-.4h0Z"/></g></g><g><g><path class="e" d="M296.3,49.86c-.24,.2-.58,.24-.88,.09-3.96-2.05-8.45-2.89-12.97-2.44-4.42,.45-8.62,2.1-12.13,4.77-.35,.27-.85,.19-1.12-.16-.27-.35-.21-.86,.14-1.12,3.74-2.85,8.21-4.61,12.93-5.08,4.84-.49,9.63,.41,13.87,2.61,.39,.2,.55,.69,.35,1.08-.05,.1-.12,.18-.2,.25Z"/><path class="e" d="M284.83,45.79c3.96,0,7.82,.93,11.31,2.74,.39,.2,.55,.69,.35,1.08-.05,.1-.12,.18-.2,.25-.14,.12-.32,.18-.51,.18-.12,0-.25-.03-.37-.09-3.26-1.69-6.87-2.56-10.57-2.56-.8,0-1.6,.04-2.4,.12-4.42,.45-8.62,2.1-12.13,4.77-.14,.11-.31,.16-.48,.16-.24,0-.48-.11-.64-.32-.27-.35-.21-.86,.14-1.12,3.74-2.85,8.21-4.61,12.93-5.08,.85-.09,1.71-.13,2.56-.13m0-2h0c-.92,0-1.85,.05-2.76,.14-5.08,.51-9.9,2.41-13.94,5.48-.6,.46-.98,1.12-1.08,1.87-.09,.74,.1,1.47,.55,2.06,.53,.69,1.36,1.11,2.23,1.11,.61,0,1.21-.2,1.69-.57,3.22-2.45,7.06-3.96,11.12-4.37,.73-.07,1.47-.11,2.2-.11,3.37,0,6.71,.81,9.65,2.33,.4,.21,.84,.31,1.29,.31,.65,0,1.29-.23,1.78-.64,.29-.24,.53-.54,.71-.89,.69-1.36,.14-3.05-1.22-3.76-3.74-1.94-7.97-2.96-12.23-2.96h0Z"/></g><g><path class="e" d="M269.84,53.17c-.46,0-.92-.21-1.22-.6-.25-.32-.35-.72-.3-1.12,.05-.4,.26-.76,.58-1.01,3.85-2.93,8.44-4.74,13.29-5.23,4.98-.5,9.91,.43,14.28,2.69,.74,.38,1.04,1.3,.67,2.05-.09,.18-.22,.35-.38,.48h0c-.47,.39-1.12,.46-1.67,.18-3.84-1.99-8.18-2.8-12.57-2.36-4.29,.43-8.36,2.03-11.77,4.63-.27,.21-.59,.31-.91,.31Zm14.98-6.65c-.83,0-1.65,.04-2.49,.13-4.58,.46-8.93,2.17-12.56,4.94-.03,.02-.03,.08,0,.11,.03,.04,.08,.05,.11,.02,3.62-2.75,7.94-4.45,12.49-4.91,4.67-.47,9.29,.4,13.38,2.51,.04,.02,.07,0,.08,0,0,0,.01-.01,.01-.02,.02-.04,0-.09-.04-.12-3.39-1.75-7.14-2.66-10.98-2.66Z"/><path class="e" d="M284.83,45.07c4.07,0,8.05,.96,11.64,2.82,.74,.38,1.04,1.3,.67,2.05-.09,.18-.22,.35-.38,.48h0c-.28,.23-.62,.35-.96,.35-.24,0-.48-.06-.7-.17-3.16-1.64-6.66-2.48-10.25-2.48-.77,0-1.55,.04-2.32,.12-4.29,.43-8.36,2.03-11.77,4.63-.27,.21-.59,.31-.91,.31-.46,0-.92-.21-1.22-.6-.25-.32-.35-.72-.3-1.12,.05-.4,.26-.76,.58-1.01,3.85-2.93,8.44-4.74,13.29-5.23,.88-.09,1.76-.13,2.63-.13m-14.99,6.65s.03,0,.04-.01c3.62-2.75,7.94-4.45,12.49-4.91,.83-.08,1.65-.13,2.47-.13,3.82,0,7.54,.9,10.9,2.64,.01,0,.03,.01,.04,.01,.02,0,.04-.01,.04-.02,0,0,.01-.01,.01-.02,.02-.04,0-.09-.04-.12-3.39-1.75-7.14-2.66-10.98-2.66-.83,0-1.65,.04-2.49,.13-4.58,.46-8.93,2.17-12.56,4.94-.03,.02-.03,.08,0,.11,.02,.02,.04,.04,.07,.04m14.99-8.65c-.94,0-1.89,.05-2.83,.14-5.21,.53-10.16,2.47-14.3,5.62-.75,.57-1.23,1.41-1.35,2.35-.12,.93,.13,1.85,.7,2.59,.66,.87,1.71,1.39,2.81,1.39,.77,0,1.51-.25,2.12-.71,3.11-2.37,6.83-3.83,10.76-4.23,.7-.07,1.42-.11,2.12-.11,3.26,0,6.48,.78,9.33,2.25,.5,.26,1.06,.4,1.62,.4,.66,0,1.3-.19,1.85-.53l.08-.03,.31-.26c.37-.31,.67-.68,.88-1.11,.87-1.71,.18-3.83-1.54-4.72-3.84-1.99-8.19-3.04-12.56-3.04h0Z"/></g></g><g><g><path class="e" d="M273.04,89.7c-.24,.2-.58,.24-.88,.09-2.84-1.47-5.28-3.44-7.26-5.84-1.91-2.33-3.32-4.97-4.17-7.85-.87-2.93-1.12-5.95-.76-8.99,.37-3.14,1.39-6.16,3.03-8.96,.22-.38,.71-.5,1.09-.28s.51,.72,.29,1.1c-1.53,2.62-2.48,5.42-2.82,8.35-.34,2.82-.1,5.63,.7,8.34,.79,2.67,2.09,5.12,3.86,7.28,1.84,2.24,4.11,4.06,6.75,5.43,.39,.2,.55,.69,.35,1.08-.05,.1-.12,.18-.2,.25Z"/><path class="e" d="M263.68,57.76c.14,0,.28,.04,.41,.11,.38,.23,.51,.72,.29,1.1-1.53,2.62-2.48,5.42-2.83,8.35-.33,2.82-.1,5.63,.71,8.34,.79,2.67,2.09,5.12,3.86,7.28,1.84,2.24,4.11,4.06,6.75,5.43,.39,.2,.55,.69,.35,1.08-.05,.1-.12,.18-.2,.25-.14,.12-.32,.18-.51,.18-.12,0-.25-.03-.37-.09-2.84-1.47-5.28-3.44-7.26-5.84-1.91-2.33-3.32-4.97-4.17-7.85-.87-2.93-1.12-5.95-.76-8.99,.37-3.14,1.39-6.16,3.03-8.96,.15-.25,.41-.39,.68-.39m0-2h0c-.99,0-1.91,.53-2.41,1.38-1.77,3.04-2.88,6.32-3.29,9.73-.39,3.31-.11,6.6,.83,9.79,.93,3.14,2.46,6.02,4.54,8.55,2.15,2.62,4.8,4.75,7.89,6.35,.4,.21,.84,.31,1.29,.31,.65,0,1.29-.23,1.79-.64,.3-.25,.53-.55,.71-.89,.69-1.36,.14-3.05-1.22-3.76-2.4-1.24-4.46-2.9-6.13-4.93-1.6-1.95-2.78-4.16-3.49-6.57-.73-2.45-.94-4.99-.64-7.54,.32-2.65,1.18-5.2,2.57-7.58,.77-1.32,.33-3.04-.99-3.83-.44-.26-.93-.4-1.44-.4h0Z"/></g><g><path class="e" d="M272.53,90.61c-.24,0-.48-.06-.7-.17-2.93-1.52-5.45-3.54-7.49-6.03-1.97-2.4-3.42-5.13-4.3-8.1-.89-3.02-1.16-6.14-.78-9.28,.38-3.24,1.44-6.35,3.12-9.24,.2-.35,.53-.6,.92-.7,.4-.1,.81-.04,1.16,.17,.72,.43,.96,1.36,.54,2.08-1.48,2.53-2.4,5.24-2.73,8.07-.32,2.72-.09,5.43,.68,8.05,.76,2.58,2.02,4.94,3.73,7.02,1.77,2.16,3.97,3.93,6.52,5.25,.74,.39,1.04,1.3,.67,2.05-.09,.18-.22,.35-.38,.48h0c-.28,.23-.62,.35-.97,.35Zm-9.53-32.45l.62,.36c-1.59,2.72-2.57,5.64-2.94,8.68-.35,2.94-.1,5.87,.74,8.7,.82,2.79,2.18,5.34,4.03,7.6,1.92,2.33,4.28,4.24,7.03,5.66,.05,.02,.08,0,.08,0,0,0,.01-.01,.02-.02,.02-.04,0-.09-.04-.12-2.73-1.41-5.08-3.3-6.98-5.61-1.84-2.23-3.18-4.77-4-7.53-.83-2.81-1.08-5.71-.73-8.63,.36-3.02,1.34-5.93,2.92-8.63,.02-.04,0-.09-.04-.12l-.72-.34Z"/><path class="e" d="M263.69,57.04c.27,0,.54,.07,.78,.22,.72,.43,.96,1.36,.54,2.08-1.48,2.53-2.4,5.24-2.73,8.07-.32,2.72-.09,5.43,.68,8.05,.76,2.58,2.02,4.94,3.73,7.02,1.77,2.16,3.97,3.93,6.52,5.25,.74,.39,1.04,1.3,.67,2.05-.09,.18-.22,.35-.38,.48h0c-.28,.23-.62,.35-.97,.35-.24,0-.48-.06-.7-.17-2.93-1.52-5.44-3.54-7.49-6.03-1.98-2.4-3.42-5.13-4.3-8.1-.89-3.02-1.16-6.14-.78-9.28,.38-3.24,1.44-6.35,3.12-9.24,.2-.35,.53-.6,.92-.7,.13-.03,.25-.05,.38-.05m8.85,32.12s.04-.01,.04-.02c0,0,.01-.01,.02-.02,.02-.04,0-.09-.04-.12-2.73-1.41-5.08-3.3-6.98-5.61-1.84-2.23-3.18-4.77-4-7.53-.83-2.81-1.08-5.71-.73-8.63,.36-3.02,1.34-5.93,2.92-8.63,.02-.04,0-.09-.04-.12l-.72-.34,.62,.36c-1.59,2.72-2.57,5.64-2.94,8.68-.35,2.94-.1,5.87,.74,8.7,.82,2.79,2.18,5.34,4.03,7.6,1.92,2.33,4.28,4.24,7.03,5.66,.01,0,.03,.01,.04,.01m-8.85-34.12h0c-.29,0-.59,.04-.88,.11-.92,.24-1.68,.81-2.15,1.63-1.83,3.13-2.96,6.5-3.38,10.01-.41,3.41-.12,6.8,.85,10.08,.96,3.23,2.53,6.19,4.68,8.81,2.21,2.69,4.94,4.89,8.11,6.53,.5,.26,1.06,.4,1.62,.4,.82,0,1.62-.29,2.25-.81,.37-.31,.67-.69,.89-1.12,.87-1.71,.18-3.83-1.53-4.72-2.31-1.2-4.3-2.79-5.9-4.74-1.54-1.88-2.67-4-3.36-6.32-.7-2.36-.9-4.8-.61-7.25,.3-2.55,1.14-5.01,2.47-7.3,.97-1.66,.41-3.82-1.25-4.81-.55-.33-1.17-.5-1.8-.5h0Z"/></g></g></g></g><g><g><path class="d" d="M58.54,99.13l-20.8-38.01c-.39-.72-1.14-1.16-1.96-1.16H8.2c-1.23,0-2.23,1-2.23,2.23v35.87c0,1.23-1,2.23-2.23,2.23h0c-1.23,0-2.23-1-2.23-2.23V10.56c0-1.23,1-2.23,2.23-2.23h31.14c15.9,0,28.51,9.59,28.51,25.88,0,13.01-7.87,21.52-19.04,24.59-1.38,.38-2.02,1.98-1.32,3.23l19.44,34.95c.83,1.49-.25,3.32-1.95,3.32h0c-.82,0-1.57-.45-1.96-1.16Zm.37-64.92c0-13.27-9.85-21.81-24.3-21.81H8.2c-1.23,0-2.23,1-2.23,2.23V53.66c0,1.23,1,2.23,2.23,2.23h26.41c14.45,0,24.3-8.28,24.3-21.68Z"/><path class="d" d="M60.5,101.79c-1.37,0-2.62-.74-3.28-1.94l-20.8-38.01c-.13-.23-.38-.38-.64-.38H8.2c-.4,0-.73,.33-.73,.73v35.87c0,2.06-1.67,3.73-3.73,3.73s-3.73-1.67-3.73-3.73V10.56c0-2.06,1.67-3.73,3.73-3.73h31.14c17.67,0,30.01,11.26,30.01,27.38,0,12.83-7.53,22.56-20.15,26.03-.28,.08-.4,.28-.45,.4-.04,.1-.12,.37,.04,.65l19.44,34.95c.65,1.17,.63,2.56-.04,3.71-.68,1.15-1.88,1.84-3.22,1.84ZM8.2,58.46h27.58c1.36,0,2.62,.74,3.28,1.94l20.8,38.01c.13,.23,.38,.38,.64,.38,.38,0,.57-.25,.63-.36,.06-.11,.19-.4,0-.73l-19.44-34.95c-.56-1.01-.63-2.2-.18-3.27,.44-1.05,1.32-1.83,2.42-2.13,11.4-3.14,17.94-11.57,17.94-23.14,0-14.58-10.85-24.38-27.01-24.38H3.73c-.4,0-.73,.33-.73,.73V98.06c0,.4,.33,.73,.73,.73s.73-.33,.73-.73V62.2c0-2.06,1.67-3.73,3.73-3.73Zm26.41-1.07H8.2c-2.06,0-3.73-1.67-3.73-3.73V14.64c0-2.06,1.67-3.73,3.73-3.73h26.41c15.43,0,25.8,9.37,25.8,23.31s-10.13,23.18-25.8,23.18ZM8.2,13.9c-.4,0-.73,.33-.73,.73V53.66c0,.4,.33,.73,.73,.73h26.41c13.85,0,22.8-7.92,22.8-20.18s-8.95-20.31-22.8-20.31H8.2Z"/></g><g><path class="d" d="M74.41,16.57c-.04-1.77,1.47-3.29,3.24-3.24,1.8,.05,3.2,1.47,3.2,3.15,0,1.84-1.45,3.28-3.28,3.28-1.68,0-3.11-1.4-3.15-3.2Zm3.22,18.7h0c1.2,0,2.17,.97,2.17,2.17v60.7c0,1.2-.97,2.17-2.17,2.17h0c-1.2,0-2.17-.97-2.17-2.17V37.43c0-1.2,.97-2.17,2.17-2.17Z"/><path class="d" d="M77.63,101.79c-2.02,0-3.67-1.65-3.67-3.67V37.43c0-2.02,1.65-3.67,3.67-3.67s3.67,1.64,3.67,3.67v60.7c0,2.02-1.64,3.67-3.67,3.67Zm0-65.03c-.37,0-.67,.3-.67,.67v60.7c0,.37,.3,.67,.67,.67s.67-.3,.67-.67V37.43c0-.37-.3-.67-.67-.67Zm-.07-15.5c-2.5,0-4.58-2.09-4.65-4.66h0c-.03-1.25,.47-2.49,1.38-3.4,.91-.91,2.18-1.38,3.4-1.38,2.57,.07,4.66,2.15,4.66,4.65,0,2.68-2.1,4.78-4.79,4.78Zm-1.65-4.73c.02,.96,.76,1.73,1.65,1.73,1.02,0,1.79-.77,1.79-1.78,0-.89-.78-1.63-1.73-1.65-.46-.05-.87,.17-1.2,.5-.33,.33-.51,.77-.5,1.2h0Z"/></g><g><path class="d" d="M94.01,85.71V3.67c0-1.2,.97-2.17,2.17-2.17h0c1.2,0,2.17,.97,2.17,2.17V85.32c0,7.09,3.55,10.9,9.33,10.9,1,0,2.06-.16,3.16-.41,1.08-.25,2.15,.47,2.37,1.55h0c.21,1.06-.46,2.1-1.51,2.34-1.72,.38-3.29,.59-4.94,.59-7.75,0-12.74-5.12-12.74-14.58Z"/><path class="d" d="M106.76,101.79c-8.79,0-14.24-6.16-14.24-16.08V3.67c0-2.02,1.65-3.67,3.67-3.67s3.67,1.65,3.67,3.67V85.32c0,6.06,2.78,9.4,7.83,9.4,.8,0,1.72-.12,2.83-.37,.92-.21,1.86-.04,2.65,.47,.8,.52,1.34,1.32,1.53,2.25,.37,1.85-.82,3.69-2.66,4.09-1.95,.43-3.62,.63-5.27,.63ZM96.18,3c-.37,0-.67,.3-.67,.67V85.71c0,8.31,4.1,13.08,11.24,13.08,1.44,0,2.87-.17,4.62-.56,.25-.06,.42-.31,.36-.58-.04-.18-.15-.28-.22-.32-.08-.05-.2-.1-.35-.07-1.33,.3-2.47,.45-3.5,.45-6.78,0-10.83-4.64-10.83-12.4V3.67c0-.37-.3-.67-.67-.67Z"/></g><g><path class="d" d="M191.22,129.56c.12-.98,.92-1.74,1.91-1.82,6.96-.56,12.55-3.96,16.57-13.45l5.56-13.22c.22-.53,.22-1.13-.02-1.66l-27.63-62.31c-.61-1.38,.4-2.94,1.91-2.94h.01c.83,0,1.58,.49,1.92,1.25l24.42,55.62c.74,1.69,3.14,1.66,3.85-.03l23.2-55.55c.33-.78,1.09-1.29,1.93-1.29h.05c1.5,0,2.51,1.53,1.93,2.91l-32.93,78.02c-5.46,12.94-12.64,16.23-20.47,16.84-1.31,.1-2.37-1.05-2.21-2.35h0Z"/><path class="d" d="M193.27,133.42c-.96,0-1.88-.39-2.56-1.1-.75-.79-1.11-1.86-.97-2.94h0c.21-1.68,1.59-3,3.28-3.13,7.16-.57,11.88-4.44,15.3-12.54l5.56-13.22c.06-.15,.06-.32,0-.47l-27.62-62.31c-.5-1.12-.39-2.39,.27-3.42s1.79-1.63,3.01-1.63c1.44,0,2.73,.84,3.3,2.15l24.42,55.62c.14,.31,.41,.34,.55,.35,.15,0,.41-.05,.54-.37l23.2-55.55c.56-1.34,1.86-2.21,3.32-2.21,1.25,0,2.37,.6,3.04,1.61,.67,1.01,.79,2.27,.32,3.38l-32.93,78.02c-6.21,14.72-14.88,17.22-21.74,17.75-.09,0-.19,.01-.28,.01Zm-.56-3.67h0c-.03,.26,.11,.43,.17,.5,.08,.09,.22,.18,.44,.17,6.39-.5,13.66-2.77,19.21-15.92l32.93-78.02c.11-.25,.01-.46-.05-.56-.07-.1-.22-.27-.5-.27s-.5,.14-.59,.37l-23.2,55.55c-.56,1.35-1.82,2.2-3.28,2.21h-.03c-1.45,0-2.71-.82-3.29-2.15l-24.42-55.62c-.1-.22-.31-.36-.54-.36-.29,0-.44,.17-.51,.27-.07,.1-.16,.31-.04,.56l27.62,62.31c.4,.9,.41,1.94,.03,2.85l-5.56,13.22c-3.87,9.14-9.53,13.7-17.83,14.37-.28,.02-.51,.23-.54,.51Z"/></g><g><g><path class="d" d="M148.95,32.71c-6.41,0-12.29,1.7-17.26,4.68-1.15,.69-1.57,2.04-.84,3.16h0c.48,.73,1.55,1.11,2.28,.64,4.47-2.89,9.86-4.54,15.82-4.54,15.84,0,27.45,10.92,29.17,25.53l-1.15,1.27h-53.56c-1.89,0-3.32-1.74-2.92-3.58,.93-4.3,2.7-8.23,5.14-11.58,.5-.69,.51-1.61,.04-2.33h0c-.78-1.2-2.51-1.23-3.36-.08-4.26,5.73-6.73,12.94-6.73,20.85,0,16.61,11.16,30.21,26.89,33.03,.64,.12,1.23-.22,1.72-1.04l.13-.35c.13-.69-.03-1.43-.51-1.94-.15-.16-.3-.27-.45-.3-12.37-2.39-21.66-12.44-23.31-25.39-.23-1.78,1.17-3.36,2.96-3.36h56.17c1.74,0,3.15-1.41,3.15-3.15h0c-.79-18.26-14.85-31.53-33.37-31.53Z"/><path class="d" d="M142.7,101.29c-.2,0-.36-.02-.49-.04-16.56-2.97-28.12-17.16-28.12-34.51,0-8.04,2.43-15.56,7.03-21.75,.7-.94,1.8-1.49,2.97-1.44,1.15,.03,2.22,.63,2.85,1.6,.81,1.23,.77,2.85-.09,4.03-2.37,3.24-4.01,6.95-4.89,11.01-.12,.58,.13,1.01,.29,1.21,.29,.35,.71,.56,1.17,.56h52.9l.24-.26c-1.95-13.89-13.21-23.54-27.6-23.54-5.46,0-10.65,1.49-15.01,4.3-1.39,.89-3.38,.4-4.35-1.08-.55-.85-.74-1.84-.52-2.8,.24-1.02,.89-1.9,1.84-2.47,5.35-3.2,11.58-4.9,18.03-4.9,19.38,0,34.04,13.86,34.87,32.97,0,2.63-2.09,4.72-4.65,4.72h-56.17c-.43,0-.83,.18-1.11,.5-.29,.32-.41,.74-.36,1.16,1.57,12.35,10.25,21.81,22.1,24.1,.46,.09,.88,.34,1.26,.74,.78,.83,1.11,2.04,.89,3.24l-.06,.23-.25,.61c-.89,1.51-2.04,1.8-2.78,1.8Zm-18.72-54.75c-.11,0-.31,.03-.46,.23-4.21,5.66-6.44,12.57-6.44,19.96,0,15.84,10.51,28.8,25.58,31.54,.04-.03,.09-.1,.17-.21l.02-.06c.02-.17-.01-.34-.08-.46-13-2.64-22.5-13.06-24.22-26.61-.16-1.27,.23-2.56,1.08-3.52,.85-.97,2.08-1.52,3.37-1.52h56.17c.91,0,1.65-.74,1.65-1.65-.75-17.37-14.15-30.03-31.87-30.03-5.91,0-11.61,1.55-16.49,4.47-.24,.15-.41,.35-.46,.57-.04,.17,0,.32,.1,.49,.06,.1,.23,.16,.29,.17,4.77-3.1,10.52-4.75,16.56-4.75,16.19,0,28.8,11.04,30.66,26.86l.08,.68-2.05,2.27h-54.23c-1.37,0-2.64-.61-3.5-1.68-.85-1.05-1.17-2.41-.89-3.72,.97-4.48,2.79-8.57,5.4-12.15,.13-.17,.13-.42,0-.62-.13-.19-.3-.24-.43-.24h-.02Z"/></g><g><path class="d" d="M175.58,89.19c.73-.86,.55-2.18-.4-2.83-.84-.57-1.98-.29-2.64,.48-4.58,5.36-11.31,8.76-19.33,9.62-1.04,.11-1.81,1.03-1.77,2.07h0c0,.98,.84,1.84,1.81,1.74,9.2-.91,17.02-4.77,22.33-11.1Z"/><path class="d" d="M153.11,101.79c-.76,0-1.51-.29-2.09-.82-.69-.63-1.08-1.51-1.08-2.44-.08-1.77,1.28-3.37,3.11-3.56,7.62-.82,13.97-3.97,18.35-9.11,1.2-1.4,3.19-1.72,4.62-.75,.8,.55,1.34,1.41,1.47,2.37,.13,.96-.15,1.93-.76,2.66-5.58,6.64-13.65,10.67-23.33,11.63-.1,0-.19,.01-.29,.01Zm21.07-14.23c-.16,0-.36,.1-.5,.26-4.89,5.73-11.92,9.24-20.31,10.14-.25,.03-.44,.25-.43,.52,0,.14,.04,.22,.1,.28,8.96-.84,16.33-4.5,21.4-10.53h0c.1-.12,.1-.25,.09-.32,0-.07-.05-.21-.19-.3-.04-.03-.1-.04-.16-.04Z"/></g></g></g></g></g></svg>