<?xml version="1.0" encoding="UTF-8" standalone="yes"?><svg xmlns="http://www.w3.org/2000/svg" viewBox="0 0 1667 1667" version="1.2" baseProfile="tiny-ps"><title>Riley</title><defs></defs><rect id="b" width="1667" height="1667" fill="#5572b7"></rect><g fill="#f1eade"><path d="M1178.42,1063.31c-5.11-2.45-10.58-3.65-16.25-3.66-4.4,0-8.74,.78-12.93,2.32-9.64,3.52-17.3,10.55-21.59,19.83-12.03,26.16-28.91,49.44-50.22,69.21-20.68,19.2-44.59,34.25-71.11,44.87-26.45,10.55-54.16,16.11-82.29,16.39h-3.02c-27.71,0-54.86-5.28-80.6-15.61-4.57-1.83-9.35-2.81-14.28-2.81-5.28,0-10.34,1.05-15.19,3.16-9.35,4.08-16.6,11.53-20.26,21.1-7.53,19.34,2.04,41.5,21.38,49.3,34.89,14.07,71.81,21.17,109.65,21.17h3.38c37.56-.42,74.41-7.81,109.65-21.87,30.03-11.96,57.67-28.41,82.22-48.88,4.08-3.45,8.3-7.1,12.31-10.83,28.63-26.59,51.34-57.88,67.59-93.12,8.72-18.99,.42-41.64-18.43-50.57Z" fill="#f1eade"></path><path d="M1162.11,1059.66s.04,0,.06,0c.03,0,.05,0,.08,0h-.14Z"></path><path d="M594.8,598.27c5.2,2.46,10.69,3.73,16.32,3.73,4.43,0,8.79-.77,13.01-2.32,9.57-3.52,17.23-10.48,21.52-19.76,25.67-55.77,82.71-91.71,145.38-91.71,19.9,0,39.25,3.73,57.46,11.04,4.57,1.83,9.35,2.74,14.28,2.74,8.86,0,17.51-3.09,24.34-8.79,4.92-4.08,8.72-9.42,11.11-15.4,7.53-19.48-2.04-41.64-21.45-49.37-27.36-10.97-56.06-16.6-85.24-16.6h-.07v-.07h-3.09c-29.26,.28-58.03,5.98-85.46,16.95-27.43,10.9-52.26,26.52-73.78,46.42-22.37,20.68-40.09,45.08-52.75,72.58-8.72,18.92-.42,41.64,18.43,50.57Z"></path><path d="M1476.75,629.03c-.03-.94-.08-1.89-.18-2.84-2.32-22.01-7.39-43.75-14.91-64.57-.32-.88-.68-1.75-1.06-2.6-11.52-30.55-28.3-58.58-49.93-83.21-22.5-25.75-49.62-47.01-80.54-63.28-.66-.4-1.34-.78-2.03-1.14-34.46-17.86-71.6-28.56-110.49-31.86-8.56-.7-17.26-1.12-25.82-1.12-28.74,0-57.41,4.16-85.38,12.24-36.43,10.62-70.05,27.5-100.01,50.29-31.09,23.63-56.76,52.61-76.31,86.09-.65,1.11-1.23,2.25-1.75,3.4-18.61,32.92-30.33,68.23-34.68,104.99-4.36,36.93-1.27,73.71,9.21,109.23,10.34,35.03,27.43,67.17,50.64,95.44,23.06,28.07,51.34,51.18,84,68.73,1.23,.83,2.5,1.61,3.85,2.3,34.39,17.79,71.6,28.56,110.49,31.86,8.58,.7,17.3,1.13,25.88,1.13,28.77,0,57.53-4.15,85.45-12.24,36.43-10.62,70.05-27.5,100.01-50.29,2.32-1.76,4.64-3.59,6.89-5.42h.07l3.31-2.81c26.45-22.01,48.67-48.25,65.97-77.86,10.55-18.01,4.43-41.43-13.5-52.12-5.91-3.52-12.66-5.42-19.55-5.42h0c-3.17,0-6.4,.42-9.5,1.2-9.99,2.6-18.22,8.86-23.42,17.65-14.49,24.83-33.55,46.35-56.69,63.93-22.44,17.09-47.69,29.82-75.12,37.77-21.03,6.12-42.69,9.21-64.21,9.21-6.4,0-12.94-.28-19.34-.84-27.48-2.35-53.8-9.68-78.25-21.75-1.13-.75-2.31-1.45-3.55-2.09-25.04-13.01-46.56-30.24-63.93-51.41-16.67-20.33-28.91-43.4-36.36-68.5-7.53-25.53-9.78-51.98-6.61-78.56,3.31-27.64,12.31-54.23,26.8-79.05,.33-.57,.65-1.15,.95-1.73,14.34-24.01,32.99-44.87,55.53-62,22.44-17.09,47.76-29.75,75.19-37.77,21.03-6.12,42.62-9.21,64.14-9.21,6.47,0,13.01,.28,19.41,.84,28.91,2.46,56.41,10.41,81.87,23.56,.28,.14,.56,.27,.84,.41,22.87,11.92,42.78,27.55,59.29,46.37,15.97,18.29,28.34,39.04,36.57,61.75,.23,.62,.47,1.23,.73,1.84,4.72,13.41,8.01,27.37,9.68,41.47,.03,1.04,.09,2.07,.2,3.11,1.05,10.2,1.34,20.54,.84,30.74-1.05,20.82,14.91,38.82,35.66,40.23h2.53c8.86,0,17.51-3.09,24.34-8.79,8.09-6.75,13.08-16.67,13.64-27.22,.66-13.31,.38-26.74-.87-40.07Z"></path><path d="M1191.72,378.41h0Z"></path><path d="M501.54,1133.93c-1.34,0-2.6,0-3.94,.21-7.6,.77-15.33,1.13-22.93,1.13-35.01,0-69.66-8.31-100.28-24.01-.24-.13-.48-.27-.72-.39-25.04-13.01-46.56-30.31-63.93-51.41-16.74-20.33-28.98-43.4-36.36-68.5-7.6-25.53-9.78-51.98-6.61-78.56,3.31-27.64,12.31-54.23,26.8-79.05,10.55-18.08,4.43-41.43-13.5-52.12-5.91-3.52-12.66-5.42-19.48-5.42h-.14v-.07c-3.16,0-6.4,.42-9.49,1.2-9.92,2.53-18.22,8.86-23.35,17.65-19.76,33.9-32.14,70.4-36.64,108.52-4.36,36.92-1.27,73.64,9.21,109.23,10.34,35.03,27.43,67.17,50.64,95.44,23.17,28.2,51.6,51.39,84.44,68.97,1.09,.72,2.22,1.38,3.4,2,41.64,21.59,88.76,32.99,136.17,32.99,10.2,0,20.47-.49,30.74-1.55,7.6-.77,14.7-3.8,20.54-8.65,9.85-8.23,14.91-20.75,13.43-33.62-2.25-19.34-18.57-33.97-37.98-33.97Z"></path><path d="M713.24,750.05c-22.59-27.49-50.17-50.23-81.97-67.65-1.73-1.31-3.6-2.5-5.6-3.53-41.64-21.59-88.76-32.99-136.17-32.99v.07c-10.2,0-20.54,.49-30.74,1.55-56.55,5.7-110.07,26.8-154.94,60.98-8.16,6.19-13.36,15.26-14.7,25.46-1.27,10.06,1.41,19.97,7.53,28.06,7.17,9.42,18.57,15.05,30.45,15.05,8.37,0,16.32-2.67,23-7.74,33.76-25.67,74.06-41.5,116.61-45.86,7.6-.77,15.4-1.2,23-1.2,33.53,0,66.74,7.63,96.38,22.07,1.39,.98,2.86,1.89,4.41,2.69,25.11,13.01,46.63,30.31,63.93,51.41,16.67,20.33,28.91,43.4,36.36,68.5,7.53,25.53,9.78,51.98,6.61,78.56-3.3,27.62-12.3,54.19-26.77,79.01-9.04,15.43-20.01,29.74-32.59,42.53-12.31,12.52-26.23,23.7-41.36,33.06-8.65,5.42-14.63,13.86-16.95,23.77-2.32,9.99-.56,20.26,4.92,28.91,7.03,11.18,19.13,17.94,32.42,17.94,7.1,0,14.07-1.97,20.12-5.77,11.68-7.24,22.93-15.4,33.48-24.19,7.6-6.33,14.98-13.15,21.87-20.12,16.84-17.19,31.61-36.37,43.77-57.14,.04-.06,.08-.12,.12-.18,.08-.14,.15-.28,.23-.41,.02-.03,.03-.05,.05-.08,.02-.03,.03-.06,.05-.09,19.64-33.81,31.91-70.11,36.38-108.01,4.36-36.93,1.27-73.71-9.28-109.23-10.34-35.03-27.43-67.17-50.64-95.44Z"></path></g></svg>
